<?xml version="1.0" encoding="UTF-8"?>
<svg version="1.1" xmlns="http://www.w3.org/2000/svg" width="160" height="160">
<path d="M0 0 C0.66 0 1.32 0 2 0 C4.33496508 8.60344827 4.36558055 15.17498152 -0.0625 23.0625 C-5.04079673 30.39816665 -11.86725218 35.63472504 -20 39 C-20.99 39 -21.98 39 -23 39 C-22.7834375 40.0003125 -22.566875 41.000625 -22.34375 42.03125 C-17.23059633 68.08196475 -16.88451444 96.76826335 -31 120 C-33.1192279 122.89684782 -35.25669362 125.66927532 -38 128 C-38.66 128 -39.32 128 -40 128 C-39.45837834 130.54773987 -38.89277226 133.08603097 -38.3125 135.625 C-38.16361328 136.33785156 -38.01472656 137.05070313 -37.86132812 137.78515625 C-36.61878032 143.09643904 -34.64814833 145.97070184 -31 150 C-31 150.66 -31 151.32 -31 152 C-41.50746311 152.5928976 -49.74261742 151.80712365 -58 144.875 C-59.71000955 143.28830845 -61.35024247 141.64975753 -63 140 C-65.01045103 140.26305467 -67.01065621 140.60805307 -69 141 C-83.30691849 141.86675992 -97.44701882 142.08520567 -111 137 C-110.72285156 137.75925781 -110.44570312 138.51851562 -110.16015625 139.30078125 C-109.61681641 140.79158203 -109.61681641 140.79158203 -109.0625 142.3125 C-108.70285156 143.29863281 -108.34320313 144.28476563 -107.97265625 145.30078125 C-107.29114035 147.1920563 -106.6357189 149.09284329 -106 151 C-114.91213116 150.56876785 -123.71491336 147.63425812 -130 141 C-135.37389252 133.84858918 -136.71942536 126.82324965 -137.81689453 118.1965332 C-138.730861 111.53378343 -140.70323002 106.37942954 -143.57421875 100.28125 C-148.43520734 89.09431735 -149.20987797 76.61076931 -149.4375 64.5625 C-149.48326172 63.57701172 -149.52902344 62.59152344 -149.57617188 61.57617188 C-149.71057784 52.75797175 -146.5584554 48.1110943 -140.9375 41.6171875 C-128.29143247 30.24592517 -113.95303862 25.94479211 -97.24462891 26.80908203 C-82.32437388 28.07813135 -69.60463549 34.29126957 -59.31640625 45.20703125 C-52.73366441 53.14406399 -48.36943013 61.67321763 -45.10546875 71.41796875 C-44.15298604 74.29275695 -44.15298604 74.29275695 -41 76 C-38.54152539 64.65081534 -37.3894125 53.60180678 -37 42 C-37.75023438 41.97421875 -38.50046875 41.9484375 -39.2734375 41.921875 C-50.98024217 41.27313519 -58.17922649 38.31068669 -66.87109375 30.4140625 C-70.405815 26.40588317 -72.28379314 22.45393058 -72.6875 17.125 C-72.75324219 16.34382813 -72.81898437 15.56265625 -72.88671875 14.7578125 C-72.94279297 13.88769531 -72.94279297 13.88769531 -73 13 C-71.9313269 13.24882935 -71.9313269 13.24882935 -70.84106445 13.50268555 C-67.97302132 14.00472249 -65.44864428 14.0531054 -62.54296875 13.95703125 C-61.51236328 13.93576172 -60.48175781 13.91449219 -59.41992188 13.89257812 C-57.27636179 13.83947482 -55.13306083 13.77449639 -52.99023438 13.69726562 C-45.57468465 13.57251806 -39.80344257 14.36990903 -34.28588867 19.63598633 C-33.86154541 20.08611084 -33.43720215 20.53623535 -33 21 C-32.62488281 20.46890625 -32.24976562 19.9378125 -31.86328125 19.390625 C-26.09017111 11.42169715 -21.39784195 8.54785937 -12 6 C-10.34946628 5.51574203 -8.70320837 5.01656887 -7.0625 4.5 C-5.99708984 4.17515625 -5.99708984 4.17515625 -4.91015625 3.84375 C-2.76214291 2.89493429 -1.62366488 1.66529732 0 0 Z " fill="#38AACE" transform="translate(153,4)"/>
<path d="M0 0 C6.97174456 3.5201917 12.35502351 8.35011274 17.96484375 13.71484375 C22.7828394 18.13523781 27.50260062 22.10976328 32.96484375 25.71484375 C36.67256434 28.66557138 40.32359536 31.68262979 43.96484375 34.71484375 C43.82046875 35.35808594 43.67609375 36.00132813 43.52734375 36.6640625 C41.18250831 48.07885167 41.80125528 59.18285085 42.96484375 70.71484375 C41.97484375 71.37484375 40.98484375 72.03484375 39.96484375 72.71484375 C39.23519009 75.27767117 39.23519009 75.27767117 38.96484375 77.71484375 C29.05063098 78.46465816 20.60833633 76.98090675 11.07543945 74.40551758 C10.21136475 74.17630615 9.34729004 73.94709473 8.45703125 73.7109375 C7.30243408 73.38887329 7.30243408 73.38887329 6.12451172 73.06030273 C3.72869849 72.67707012 2.28218491 73.09733464 -0.03515625 73.71484375 C-4.5226834 72.73574692 -8.30401876 71.42839829 -12.03515625 68.71484375 C-12.03515625 68.05484375 -12.03515625 67.39484375 -12.03515625 66.71484375 C-12.69515625 66.71484375 -13.35515625 66.71484375 -14.03515625 66.71484375 C-14.03515625 66.05484375 -14.03515625 65.39484375 -14.03515625 64.71484375 C-14.69515625 64.71484375 -15.35515625 64.71484375 -16.03515625 64.71484375 C-16.03515625 64.05484375 -16.03515625 63.39484375 -16.03515625 62.71484375 C-16.87046875 62.34359375 -16.87046875 62.34359375 -17.72265625 61.96484375 C-26.9088722 56.99932161 -30.75065109 48.48828525 -33.78515625 38.90234375 C-37.97611535 24.82510344 -38.30407861 11.300779 -38.03515625 -3.28515625 C-26.36650419 -8.78923741 -11.21977392 -4.75071508 0 0 Z " fill="#DAE4EB" transform="translate(42.03515625,62.28515625)"/>
<path d="M0 0 C1.03930664 0.01353516 1.03930664 0.01353516 2.09960938 0.02734375 C3.79572395 0.05073843 5.49165871 0.08660359 7.1875 0.125 C7.1875 0.455 7.1875 0.785 7.1875 1.125 C2.5675 1.125 -2.0525 1.125 -6.8125 1.125 C-6.4825 2.115 -6.1525 3.105 -5.8125 4.125 C-4.78769531 4.17398438 -3.76289063 4.22296875 -2.70703125 4.2734375 C-1.3463294 4.34851071 0.01434644 4.42405655 1.375 4.5 C2.04853516 4.5309375 2.72207031 4.561875 3.41601562 4.59375 C7.4225846 4.82828087 10.52757345 5.53126262 14.1875 7.125 C16.29118831 7.45804729 16.29118831 7.45804729 18.3125 7.5625 C22.49312969 8.1693656 22.56113355 8.3257588 25.1875 11.125 C27.47101785 12.6147817 29.79205534 14.02527464 32.12890625 15.4296875 C34.56988496 17.43990526 35.25263046 19.14352416 36.1875 22.125 C35.5275 22.125 34.8675 22.125 34.1875 22.125 C33.5275 21.465 32.8675 20.805 32.1875 20.125 C23.50195824 16.14228965 13.59314309 15.74875993 4.1875 15.125 C8.58372785 32.33643952 13.23129015 46.33220181 26.1875 59.125 C26.72761719 59.68703125 27.26773438 60.2490625 27.82421875 60.828125 C37.75910069 70.33758378 51.13161954 73.58020974 64.1875 76.125 C64.166875 75.03058594 64.14625 73.93617188 64.125 72.80859375 C64.18462781 69.29427942 64.67537996 67.24374757 66.1875 64.125 C66.5175 64.125 66.8475 64.125 67.1875 64.125 C67.6825 70.065 67.6825 70.065 68.1875 76.125 C67.1975 76.785 66.2075 77.445 65.1875 78.125 C64.45784634 80.68782742 64.45784634 80.68782742 64.1875 83.125 C54.27328723 83.87481441 45.83099258 82.391063 36.2980957 79.81567383 C35.434021 79.5864624 34.56994629 79.35725098 33.6796875 79.12109375 C32.52509033 78.79902954 32.52509033 78.79902954 31.34716797 78.47045898 C28.95135474 78.08722637 27.50484116 78.50749089 25.1875 79.125 C20.69997285 78.14590317 16.91863749 76.83855454 13.1875 74.125 C13.1875 73.465 13.1875 72.805 13.1875 72.125 C12.5275 72.125 11.8675 72.125 11.1875 72.125 C11.1875 71.465 11.1875 70.805 11.1875 70.125 C10.5275 70.125 9.8675 70.125 9.1875 70.125 C9.1875 69.465 9.1875 68.805 9.1875 68.125 C8.3521875 67.75375 8.3521875 67.75375 7.5 67.375 C-1.68621595 62.40947786 -5.52799484 53.8984415 -8.5625 44.3125 C-12.7534591 30.23525969 -13.08142236 16.71093525 -12.8125 2.125 C-8.53365394 0.0146565 -4.67385858 -0.11628739 0 0 Z " fill="#CAD5DE" transform="translate(16.8125,56.875)"/>
<path d="M0 0 C0.18612157 9.67832168 0.18612157 9.67832168 -3.1875 13.4375 C-6.06237847 16.05683371 -8.95026752 18.58562845 -12 21 C-12.721875 21.5775 -13.44375 22.155 -14.1875 22.75 C-18.60663744 24.71406109 -23.21150088 24.75680127 -28 25 C-28.495 23.515 -28.495 23.515 -29 22 C-31.31 22.33 -33.62 22.66 -36 23 C-36.12375 23.804375 -36.2475 24.60875 -36.375 25.4375 C-36.58125 26.283125 -36.7875 27.12875 -37 28 C-41.45264918 30.22632459 -46.68027828 29.28391196 -51.24609375 27.79296875 C-52.64840076 27.27151442 -54.04563008 26.73620548 -55.4375 26.1875 C-56.15615234 25.92646484 -56.87480469 25.66542969 -57.61523438 25.39648438 C-59.45027336 24.69469893 -61.23165534 23.85605378 -63 23 C-63.33 22.01 -63.66 21.02 -64 20 C-64.66 20 -65.32 20 -66 20 C-66.6875 17.6875 -66.6875 17.6875 -67 15 C-66 13.25 -66 13.25 -64 12 C-60.3125 11.3125 -60.3125 11.3125 -57 11 C-57 10.34 -57 9.68 -57 9 C-48.99976699 8.21906619 -42.91037539 9.86129967 -36 14 C-35.67 14.66 -35.34 15.32 -35 16 C-34.01 16.33 -33.02 16.66 -32 17 C-31.95875 16.319375 -31.9175 15.63875 -31.875 14.9375 C-30.24398028 9.46193379 -26.37163044 5.48908254 -21.4375 2.6875 C-15.2173989 -0.10372525 -6.61569007 -2.23199252 0 0 Z " fill="#39ADD3" transform="translate(154,11)"/>
<path d="M0 0 C6.50593632 4.85641422 12.95106475 10.79116622 16.7578125 18.05859375 C16.7578125 19.37859375 16.7578125 20.69859375 16.7578125 22.05859375 C15.2728125 21.56359375 15.2728125 21.56359375 13.7578125 21.05859375 C13.7578125 20.06859375 13.7578125 19.07859375 13.7578125 18.05859375 C13.0978125 18.05859375 12.4378125 18.05859375 11.7578125 18.05859375 C10.47350388 16.58163884 9.19200542 15.10053237 7.9765625 13.56640625 C6.68996579 11.9204628 6.68996579 11.9204628 4.7578125 10.05859375 C2.7578125 8.05859375 0.7578125 6.05859375 -1.2421875 4.05859375 C-3.20454562 3.4883049 -3.20454562 3.4883049 -5.4296875 3.12109375 C-10.44003043 2.10286277 -14.66930861 0.34503319 -19.2421875 -1.94140625 C-19.2421875 -2.60140625 -19.2421875 -3.26140625 -19.2421875 -3.94140625 C-29.5382704 -6.44476758 -42.45509612 -6.12830274 -52.2421875 -1.94140625 C-55.07084678 0.00314645 -55.07084678 0.00314645 -57.2421875 2.05859375 C-58.510625 2.52265625 -58.510625 2.52265625 -59.8046875 2.99609375 C-62.93592025 4.36099008 -64.19847034 6.38061954 -66.2421875 9.05859375 C-66.9021875 9.05859375 -67.5621875 9.05859375 -68.2421875 9.05859375 C-68.5515625 9.67734375 -68.8609375 10.29609375 -69.1796875 10.93359375 C-69.8671875 12.30859375 -70.5546875 13.68359375 -71.2421875 15.05859375 C-70.5615625 15.0121875 -69.8809375 14.96578125 -69.1796875 14.91796875 C-52.67366066 14.30338264 -37.23040794 19.56122486 -24.8671875 30.62109375 C-23.31922399 32.09366942 -21.77705167 33.57236964 -20.2421875 35.05859375 C-18.96122775 36.21638429 -17.67072513 37.36378352 -16.3671875 38.49609375 C-15.85414062 38.94855469 -15.34109375 39.40101562 -14.8125 39.8671875 C-10.41909399 43.20049305 -6.61578732 43.63473229 -1.2421875 43.05859375 C1.00913767 42.14290469 1.00913767 42.14290469 2.7578125 41.05859375 C3.7478125 41.05859375 4.7378125 41.05859375 5.7578125 41.05859375 C4.38797747 44.21975151 3.7687487 45.05130295 0.7578125 47.05859375 C-4.83830322 48.01268561 -9.86912506 47.79835488 -14.7421875 44.74609375 C-18.33958892 42.05281799 -21.33453829 38.93237081 -24.4296875 35.68359375 C-35.24964867 24.43220858 -49.68265147 18.0769879 -65.38696289 17.74609375 C-70.12945639 17.74609375 -74.61496551 17.98472902 -79.2421875 19.05859375 C-76.45828153 9.12019368 -68.72205056 2.6751014 -60.08984375 -2.47265625 C-55.62775547 -4.77408999 -51.04439065 -6.49374047 -46.2421875 -7.94140625 C-45.33533203 -8.22951172 -45.33533203 -8.22951172 -44.41015625 -8.5234375 C-29.41620104 -11.414164 -12.79619227 -8.10657957 0 0 Z " fill="#227A95" transform="translate(83.2421875,39.94140625)"/>
<path d="M0 0 C0.33 0 0.66 0 1 0 C2.78382416 9.61807608 3.40479856 19.05267963 3.375 28.8125 C3.37412384 29.51654968 3.37324768 30.22059937 3.37234497 30.94598389 C3.29473118 49.85957767 -0.33557969 67.32129769 -13.51953125 81.7421875 C-15 83 -15 83 -17 83 C-17.08564209 82.42556152 -17.17128418 81.85112305 -17.25952148 81.25927734 C-17.65165543 78.63110617 -18.04457143 76.00305248 -18.4375 73.375 C-18.57220703 72.47136719 -18.70691406 71.56773438 -18.84570312 70.63671875 C-19.52689444 66.08436703 -20.22367548 61.53735301 -21 57 C-20.39671875 56.75765625 -19.7934375 56.5153125 -19.171875 56.265625 C-18.37265625 55.93046875 -17.5734375 55.5953125 -16.75 55.25 C-15.56664063 54.76273438 -15.56664063 54.76273438 -14.359375 54.265625 C-7.46767108 50.56875071 -5.31726486 44.09148785 -3 37 C-0.17528092 24.98735059 -0.39027295 12.27614683 0 0 Z " fill="#CAD6DF" transform="translate(130,49)"/>
<path d="M0 0 C20.90924073 -0.78737727 20.90924073 -0.78737727 31 4 C31.969375 4.45117188 32.93875 4.90234375 33.9375 5.3671875 C40.90487057 9.01417053 45.97883839 13.68508966 51.35083008 19.30151367 C54.87663064 22.96849486 58.35707722 25.87319772 62.72265625 28.5234375 C67.45528795 31.59193627 71.68885875 35.37380642 76 39 C75.745504 40.48206495 75.47088238 41.96068615 75.1875 43.4375 C74.96126953 44.67306641 74.96126953 44.67306641 74.73046875 45.93359375 C74.48941406 46.61550781 74.24835938 47.29742187 74 48 C72.515 48.495 72.515 48.495 71 49 C67.4052428 47.05895881 64.23690728 44.48323932 61 42 C60.30132812 41.48179688 59.60265625 40.96359375 58.8828125 40.4296875 C51.95005689 34.88905149 47.24152132 27.27559917 42.63671875 19.78125 C39.77061857 15.29004147 36.59385337 13.35207675 31.890625 11.140625 C30 10 30 10 29 7 C27.07942708 7.06510417 25.15885417 7.13020833 23.23828125 7.1953125 C21 7 21 7 18.7109375 6.0234375 C14.64097288 4.48693789 10.57890935 4.57345845 6.26367188 4.43359375 C1.20191117 4.20191117 1.20191117 4.20191117 -1 2 C-0.67 1.34 -0.34 0.68 0 0 Z " fill="#EFF4F7" transform="translate(10,58)"/>
<path d="M0 0 C2.31 0 4.62 0 7 0 C7.26627197 0.49814209 7.53254395 0.99628418 7.80688477 1.50952148 C14.97481814 14.86498363 14.97481814 14.86498363 24 27 C25.11375 28.5159375 25.11375 28.5159375 26.25 30.0625 C32.96701369 37.96100795 42.75702705 42.74145749 52 47 C52 48.65 52 50.3 52 52 C36.84917723 50.28942324 24.22485505 41.97900012 14.69042969 30.41113281 C7.57748305 21.25961897 2.36078381 11.37468565 0 0 Z " fill="#EAF0F5" transform="translate(29,73)"/>
<path d="M0 0 C2.31 0 4.62 0 7 0 C7.13462646 0.6077124 7.26925293 1.2154248 7.40795898 1.84155273 C12.17237877 22.83941279 18.77061435 42.56756466 37.625 54.9375 C41.97990712 57.51451474 46.42425847 59.84163136 51 62 C51 62.33 51 62.66 51 63 C36.36028459 62.09982332 28.48444786 58.16371871 18.23828125 47.6875 C7.11008767 34.32589933 0.964935 17.20246183 0 0 Z " fill="#E0E9F0" transform="translate(12,71)"/>
<path d="M0 0 C0.66 0 1.32 0 2 0 C4.33496508 8.60344827 4.36558055 15.17498152 -0.0625 23.0625 C-5.78625597 31.43954226 -13.51780234 36.62855194 -23 40 C-23.66 40 -24.32 40 -25 40 C-25.495 37.03 -25.495 37.03 -26 34 C-25.38253906 33.78085937 -24.76507813 33.56171875 -24.12890625 33.3359375 C-14.94627335 29.89769139 -8.06709301 25.72175474 -2 18 C-1.34 18 -0.68 18 0 18 C0 14.37 0 10.74 0 7 C-15.1110571 8.20014173 -15.1110571 8.20014173 -27.4375 16.5 C-28.96548309 18.94477294 -30.06607166 21.27604234 -31 24 C-32.9375 23.625 -32.9375 23.625 -35 23 C-35.495 22.01 -35.495 22.01 -36 21 C-42.60710333 17.34273472 -48.57843722 16.42493739 -56 17 C-57.63195312 17.11794922 -57.63195312 17.11794922 -59.296875 17.23828125 C-62.20098242 17.46665589 -65.10038005 17.72099877 -68 18 C-67.71640113 19.4391134 -67.42278601 20.87625518 -67.125 22.3125 C-66.96257812 23.11300781 -66.80015625 23.91351562 -66.6328125 24.73828125 C-66.05521001 27.25301118 -66.05521001 27.25301118 -64 30 C-61.5939111 31.22844823 -61.5939111 31.22844823 -58.875 32.1875 C-57.96492188 32.53167969 -57.05484375 32.87585937 -56.1171875 33.23046875 C-55.41851562 33.48441406 -54.71984375 33.73835938 -54 34 C-54 34.66 -54 35.32 -54 36 C-47.99945246 37.66681876 -42.2054142 38.51679152 -36 39 C-36 39.99 -36 40.98 -36 42 C-49.05202929 41.59084548 -57.1391267 39.25562486 -66.87109375 30.4140625 C-70.405815 26.40588317 -72.28379314 22.45393058 -72.6875 17.125 C-72.75324219 16.34382813 -72.81898437 15.56265625 -72.88671875 14.7578125 C-72.92410156 14.17773438 -72.96148437 13.59765625 -73 13 C-71.9313269 13.24882935 -71.9313269 13.24882935 -70.84106445 13.50268555 C-67.97302132 14.00472249 -65.44864428 14.0531054 -62.54296875 13.95703125 C-61.51236328 13.93576172 -60.48175781 13.91449219 -59.41992188 13.89257812 C-57.27636179 13.83947482 -55.13306083 13.77449639 -52.99023438 13.69726562 C-45.57468465 13.57251806 -39.80344257 14.36990903 -34.28588867 19.63598633 C-33.86154541 20.08611084 -33.43720215 20.53623535 -33 21 C-32.62488281 20.46890625 -32.24976563 19.9378125 -31.86328125 19.390625 C-26.09017111 11.42169715 -21.39784195 8.54785937 -12 6 C-10.34946628 5.51574203 -8.70320837 5.01656887 -7.0625 4.5 C-6.35222656 4.2834375 -5.64195312 4.066875 -4.91015625 3.84375 C-2.76214291 2.89493429 -1.62366488 1.66529732 0 0 Z " fill="#237C99" transform="translate(153,4)"/>
<path d="M0 0 C0 0.66 0 1.32 0 2 C2.31 2.66 4.62 3.32 7 4 C7.495 5.98 7.495 5.98 8 8 C3.95305363 11.89676672 0.43221088 12.75102115 -5 13.1875 C-6.12233032 13.29529785 -6.12233032 13.29529785 -7.26733398 13.40527344 C-8.78803494 13.54851261 -10.30947074 13.68416419 -11.83154297 13.81201172 C-13.79796784 13.98248539 -15.76072811 14.19399418 -17.72265625 14.41015625 C-24.02943993 15.05189915 -28.96717313 15.01094229 -35 13 C-35.703125 11.26171875 -35.703125 11.26171875 -36 9 C-34.671875 6.89453125 -34.671875 6.89453125 -32.75 4.8125 C-32.12609375 4.11769531 -31.5021875 3.42289063 -30.859375 2.70703125 C-25.31420808 -2.38380477 -6.60469576 -3.30234788 0 0 Z " fill="#5FBDDB" transform="translate(60,36)"/>
<path d="M0 0 C2.69778698 2.58707866 4.91592856 5.1975864 7.0625 8.25 C11.73717481 14.36847286 17.92156238 18.8761784 24.73046875 22.421875 C27.53474755 24.37183823 27.90572129 25.59850071 28.6875 28.875 C28.914375 29.75671875 29.14125 30.6384375 29.375 31.546875 C29.58125 32.35640625 29.7875 33.1659375 30 34 C30.63763539 35.67798788 31.28627281 37.35293725 32 39 C23.08786884 38.56876785 14.28508664 35.63425812 8 29 C1.69755547 20.09128141 0 10.78107689 0 0 Z " fill="#156182" transform="translate(15,116)"/>
<path d="M0 0 C5.00691893 0.50069189 8.68802482 1.3849957 13 4 C15.23828125 6.78515625 15.23828125 6.78515625 17.3125 10.0625 C23.48883173 19.47989014 30.92505078 29.08619831 40.9375 34.625 C41.618125 35.07875 42.29875 35.5325 43 36 C43 37.32 43 38.64 43 40 C31.86466617 38.56738395 23.7279414 31.71503999 16 24 C15.30003906 23.31164062 14.60007812 22.62328125 13.87890625 21.9140625 C9.58012486 17.40578884 0 6.72131083 0 0 Z " fill="#F2F6F9" transform="translate(39,75)"/>
<path d="M0 0 C2.49361571 1.20381448 4.68143083 2.45428722 7 4 C7 4.66 7 5.32 7 6 C7.66 6 8.32 6 9 6 C9 6.66 9 7.32 9 8 C9.66 8 10.32 8 11 8 C11 8.66 11 9.32 11 10 C11.598125 10.12375 12.19625 10.2475 12.8125 10.375 C15 11 15 11 18 13 C20.64017635 13.81779841 23.30270591 14.3809489 26 15 C26.33 14.34 26.66 13.68 27 13 C27.56283691 13.14622803 28.12567383 13.29245605 28.70556641 13.44311523 C39.83123007 16.30105268 50.46287371 18.78670859 62 19 C62 17.35 62 15.7 62 14 C62.639375 13.71125 63.27875 13.4225 63.9375 13.125 C66.15206079 12.17176549 66.15206079 12.17176549 67 10 C67.64757625 11.43671568 68.29299453 12.87440416 68.9375 14.3125 C69.47697266 15.51326172 69.47697266 15.51326172 70.02734375 16.73828125 C71 19 71 19 72 22 C57.75455374 27.17639762 36.84813359 25.94242695 23 20 C13.98882076 15.40127158 4.96429353 8.96675519 0 0 Z " fill="#96A8B7" transform="translate(19,121)"/>
<path d="M0 0 C2.85519421 1.85229445 4.11858796 3.15497107 5.1796875 6.4140625 C5.38778076 9.13450116 5.31890527 11.676113 5.1796875 14.4140625 C0.72703832 16.64038709 -4.50059078 15.69797446 -9.06640625 14.20703125 C-10.46871326 13.68557692 -11.86594258 13.15026798 -13.2578125 12.6015625 C-13.97646484 12.34052734 -14.69511719 12.07949219 -15.43554688 11.81054688 C-17.27058586 11.10876143 -19.05196784 10.27011628 -20.8203125 9.4140625 C-21.1503125 8.4240625 -21.4803125 7.4340625 -21.8203125 6.4140625 C-22.4803125 6.4140625 -23.1403125 6.4140625 -23.8203125 6.4140625 C-24.5078125 4.1015625 -24.5078125 4.1015625 -24.8203125 1.4140625 C-23.2197553 -1.28687778 -21.5307459 -1.69174068 -18.5703125 -2.7734375 C-11.15965439 -4.37908009 -6.59905676 -3.59036827 0 0 Z " fill="#48B4D7" transform="translate(111.8203125,24.5859375)"/>
<path d="M0 0 C1.03930664 0.01353516 1.03930664 0.01353516 2.09960938 0.02734375 C3.79572395 0.05073843 5.49165871 0.08660359 7.1875 0.125 C7.1875 0.455 7.1875 0.785 7.1875 1.125 C2.5675 1.125 -2.0525 1.125 -6.8125 1.125 C-6.4825 2.115 -6.1525 3.105 -5.8125 4.125 C-4.83410156 4.16238281 -3.85570312 4.19976562 -2.84765625 4.23828125 C13.2017542 5.04311894 13.2017542 5.04311894 18.1875 8.125 C19.48046875 10.04296875 19.48046875 10.04296875 20.1875 12.125 C19.8575 13.115 19.5275 14.105 19.1875 15.125 C18.8575 14.795 18.5275 14.465 18.1875 14.125 C16.66821962 14.05320036 15.14582518 14.04107993 13.625 14.0625 C12.79871094 14.07152344 11.97242187 14.08054687 11.12109375 14.08984375 C10.48300781 14.10144531 9.84492188 14.11304687 9.1875 14.125 C9.1875 13.465 9.1875 12.805 9.1875 12.125 C8.259375 12.29 7.33125 12.455 6.375 12.625 C1.33016379 13.36200282 -3.72685711 13.20776815 -8.8125 13.125 C-9.32404555 21.42340564 -8.51999701 28.6339317 -6.23535156 36.56640625 C-5.10784062 40.53781733 -4.60839152 43.99818176 -4.8125 48.125 C-4.1525 48.125 -3.4925 48.125 -2.8125 48.125 C-2.8125 50.435 -2.8125 52.745 -2.8125 55.125 C-6.27538995 52.43949351 -7.17217099 48.78351495 -8.375 44.75 C-8.59115967 44.03030029 -8.80731934 43.31060059 -9.0300293 42.5690918 C-12.95111209 29.09363231 -13.06927576 16.05212232 -12.8125 2.125 C-8.53365394 0.0146565 -4.67385858 -0.11628739 0 0 Z " fill="#ABB6C1" transform="translate(16.8125,56.875)"/>
<path d="M0 0 C3.22411179 4.83616768 4.29187291 9.01686808 4.96484375 14.76953125 C5.12533203 16.07083984 5.28582031 17.37214844 5.45117188 18.71289062 C5.69558823 20.75948004 5.93679013 22.80638755 6.17456055 24.85375977 C7.43425027 38.79650861 7.43425027 38.79650861 15 50 C15 50.66 15 51.32 15 52 C4.74837865 52.57846139 -3.33516352 51.71007583 -11.75 45.5 C-16.20575829 41.37311911 -18.97443797 35.66013905 -21 30 C-20.505 28.515 -20.505 28.515 -20 27 C-16.3975882 30.40227781 -13.71972862 33.8735152 -11 38 C-10.34 38.33 -9.68 38.66 -9 39 C-9 39.66 -9 40.32 -9 41 C-5.04 41.66 -1.08 42.32 3 43 C3.17098905 34.96351473 2.95405994 27.22905987 2.0625 19.25 C1.97564941 18.46383301 1.88879883 17.67766602 1.79931641 16.86767578 C1.37166376 12.80597769 1.37166376 12.80597769 0 9 C-0.06950541 7.45976004 -0.08452357 5.91665012 -0.0625 4.375 C-0.05347656 3.55773437 -0.04445313 2.74046875 -0.03515625 1.8984375 C-0.02355469 1.27195312 -0.01195313 0.64546875 0 0 Z " fill="#2681A4" transform="translate(107,104)"/>
<path d="M0 0 C1.47691273 2.74904345 2.38357733 5.28937519 3.125 8.3125 C7.6224272 23.53629107 16.84583196 35.07823017 29 45 C29.66 45.66 30.32 46.32 31 47 C29.02 46.67 27.04 46.34 25 46 C25 46.66 25 47.32 25 48 C21.13066838 47.42676569 18.84777943 45.61046448 16 43 C16 42.34 16 41.68 16 41 C15.484375 40.773125 14.96875 40.54625 14.4375 40.3125 C5.84210526 35.68421053 5.84210526 35.68421053 4 32 C3.34 32 2.68 32 2 32 C2.03480469 30.90042969 2.06960937 29.80085938 2.10546875 28.66796875 C2.27673614 20.75111112 2.23296055 13.77064831 -0.44140625 6.19921875 C-1.06782285 3.73297715 -0.82160146 2.37774727 0 0 Z " fill="#CAD5DE" transform="translate(14,84)"/>
<path d="M0 0 C0 3.57575896 -1.08840607 5.05295935 -3 8 C-2.09459473 8.01401855 -2.09459473 8.01401855 -1.17089844 8.02832031 C21.36635681 8.46652085 21.36635681 8.46652085 31 13 C31.92683594 13.4228125 32.85367188 13.845625 33.80859375 14.28125 C40.89357169 17.81882567 46.30334133 22.56581536 52 28 C53.28194601 29.15669841 54.57247448 30.30402566 55.875 31.4375 C56.38804688 31.88996094 56.90109375 32.34242187 57.4296875 32.80859375 C61.82309351 36.1418993 65.62640018 36.57613854 71 36 C73.25132517 35.08431094 73.25132517 35.08431094 75 34 C75.99 34 76.98 34 78 34 C76.63016497 37.16115776 76.0109362 37.9927092 73 40 C67.40388428 40.95409186 62.37306244 40.73976113 57.5 37.6875 C53.90259858 34.99422424 50.90764921 31.87377706 47.8125 28.625 C36.99253883 17.37361483 22.55953603 11.01839415 6.85522461 10.6875 C2.11273111 10.6875 -2.37277801 10.92613527 -7 12 C-5.63855967 6.80177328 -3.53269829 3.90456127 0 0 Z " fill="#17728E" transform="translate(11,47)"/>
<path d="M0 0 C1.85103961 1.77984578 3.64627402 3.54049744 5.21484375 5.578125 C9.5539571 11.16237522 14.94318829 14.45428639 21 18 C20.67 20.31 20.34 22.62 20 25 C11.87371744 25.46882399 11.87371744 25.46882399 8.4375 23.625 C7 22 7 22 7 20 C6.34 20 5.68 20 5 20 C4.731875 19.278125 4.46375 18.55625 4.1875 17.8125 C3.12676146 14.9900467 3.12676146 14.9900467 1.375 12.8125 C-0.67389704 8.62157425 -0.24038934 4.58520413 0 0 Z " fill="#2A93BC" transform="translate(18,120)"/>
<path d="M0 0 C1.40668945 -0.0309375 1.40668945 -0.0309375 2.84179688 -0.0625 C8.24632605 -0.09296951 11.98658382 0.25779205 16.6875 3.25 C16.3125 5.1875 16.3125 5.1875 15.6875 7.25 C12.63765699 8.7749215 10.03628617 7.72839802 6.6875 7.25 C1.33297831 6.98666287 -3.84915662 7.36463554 -9.16015625 8.02734375 C-12.22789239 8.34469576 -15.2309213 8.3155655 -18.3125 8.25 C-18.3125 7.26 -18.3125 6.27 -18.3125 5.25 C-12.45301177 -0.13439459 -7.558731 0.04105217 0 0 Z " fill="#77C4DD" transform="translate(49.3125,36.75)"/>
<path d="M0 0 C0.33 0 0.66 0 1 0 C2.13846106 16.69742895 -2.94951168 33.97520137 -13.8125 46.875 C-15.51953125 48.7421875 -15.51953125 48.7421875 -17 50 C-17.66 50 -18.32 50 -19 50 C-19.33 46.37 -19.66 42.74 -20 39 C-18.02 38.505 -18.02 38.505 -16 38 C-10.14520427 33.16979352 -7.69117831 26.89614442 -5 20 C-4.67902344 19.36707031 -4.35804687 18.73414062 -4.02734375 18.08203125 C-1.06272906 12.07842085 -0.24911084 6.66371504 0 0 Z " fill="#A2B0BE" transform="translate(132,82)"/>
<path d="M0 0 C0.18612157 9.67832168 0.18612157 9.67832168 -3.1875 13.4375 C-14.7804878 24 -14.7804878 24 -19 24 C-19 23.34 -19 22.68 -19 22 C-18.39671875 21.68546875 -17.7934375 21.3709375 -17.171875 21.046875 C-16.37265625 20.61890625 -15.5734375 20.1909375 -14.75 19.75 C-13.96109375 19.33234375 -13.1721875 18.9146875 -12.359375 18.484375 C-7.42833885 15.38206749 -5.35940827 12.14071003 -3.25 6.75 C-2.82203125 5.67234375 -2.3940625 4.5946875 -1.953125 3.484375 C-1.48132813 2.25460938 -1.48132813 2.25460938 -1 1 C-1.59425781 1.33128906 -2.18851563 1.66257812 -2.80078125 2.00390625 C-5 3 -5 3 -8.1875 2.9375 C-14.31769037 3.03799492 -19.15075257 4.50486378 -23.9375 8.375 C-25.93103373 10.91222474 -26.82949348 13.03471682 -28 16 C-29.75 17.875 -29.75 17.875 -32 19 C-37.21502046 18.78714202 -37.21502046 18.78714202 -39.41796875 16.578125 C-43.95772461 12.04957841 -50.80916698 10.52687941 -57 10 C-57 9.67 -57 9.34 -57 9 C-48.99976699 8.21906619 -42.91037539 9.86129967 -36 14 C-35.67 14.66 -35.34 15.32 -35 16 C-34.01 16.33 -33.02 16.66 -32 17 C-31.95875 16.319375 -31.9175 15.63875 -31.875 14.9375 C-30.24398028 9.46193379 -26.37163044 5.48908254 -21.4375 2.6875 C-15.2173989 -0.10372525 -6.61569007 -2.23199252 0 0 Z " fill="#2F97B8" transform="translate(154,11)"/>
<path d="M0 0 C2.05335603 1.76001946 3.06023415 3.13314917 4.1875 5.625 C6.77434805 10.44188948 9.69305073 14.57744933 14 18 C17.39056407 18.98389057 20.484881 19.18007782 24 19 C25.79275866 15.88089144 26.34290718 13.32317572 26.625 9.75 C26.69976562 8.85796875 26.77453125 7.9659375 26.8515625 7.046875 C26.90054688 6.37140625 26.94953125 5.6959375 27 5 C27.33 5 27.66 5 28 5 C28.15855469 5.79664063 28.31710938 6.59328125 28.48046875 7.4140625 C29.93369013 14.01377505 31.28639687 18.15900219 36 23 C36 23.66 36 24.32 36 25 C25.74837865 25.57846139 17.66483648 24.71007583 9.25 18.5 C4.7564956 14.34804462 2.21375251 8.61952561 0 3 C0 2.01 0 1.02 0 0 Z " fill="#156181" transform="translate(86,131)"/>
<path d="M0 0 C0.66 0 1.32 0 2 0 C2.36402369 1.43503555 2.71586591 2.87316506 3.0625 4.3125 C3.35833984 5.51326172 3.35833984 5.51326172 3.66015625 6.73828125 C4 9 4 9 3 12 C3 13.32 3 14.64 3 16 C2.20845083 20.68410865 1.11064835 25.31330566 -2 29 C-4.6875 29.3125 -4.6875 29.3125 -7 29 C-7 28.34 -7 27.68 -7 27 C-8.65 26.67 -10.3 26.34 -12 26 C-12 23.03 -12 20.06 -12 17 C-12.66 17 -13.32 17 -14 17 C-14 14.03 -14 11.06 -14 8 C-10.63455581 12.05226953 -9.07193517 16.55298947 -7.18359375 21.41796875 C-6.26812371 24.12707067 -6.26812371 24.12707067 -4 25 C-1.56616379 12.56637014 -1.56616379 12.56637014 0 0 Z " fill="#2786A4" transform="translate(116,55)"/>
<path d="M0 0 C2.375 1.0625 2.375 1.0625 4 3 C4.57349318 6.9427656 4.5664946 9.09360864 2.4375 12.5 C0 14 0 14 -3.5625 14 C-7 13 -7 13 -8.9375 11.25 C-10.23370853 8.50508782 -10.52487013 6.99925788 -10 4 C-7.15185518 -0.05312917 -4.84199177 -0.7061238 0 0 Z " fill="#114166" transform="translate(77,57)"/>
<path d="M0 0 C21.34019448 -0.80360565 21.34019448 -0.80360565 31 4 C33 6 33 6 33 9 C35.94236782 11.21168225 35.94236782 11.21168225 39 13 C38.01 13.33 37.02 13.66 36 14 C34.17578125 13.07421875 34.17578125 13.07421875 32.3125 11.6875 C31.68988281 11.23761719 31.06726562 10.78773437 30.42578125 10.32421875 C29.95527344 9.88722656 29.48476563 9.45023438 29 9 C29 8.34 29 7.68 29 7 C27.07942708 7.06510417 25.15885417 7.13020833 23.23828125 7.1953125 C21 7 21 7 18.7109375 6.0234375 C14.64097288 4.48693789 10.57890935 4.57345845 6.26367188 4.43359375 C1.20191117 4.20191117 1.20191117 4.20191117 -1 2 C-0.67 1.34 -0.34 0.68 0 0 Z " fill="#DFE8EF" transform="translate(10,58)"/>
<path d="M0 0 C0.66 0 1.32 0 2 0 C3.32 2.97 4.64 5.94 6 9 C-0.60839164 11.4013051 -7.01965955 11.38413909 -14 11.375 C-15.20011719 11.37411377 -16.40023437 11.37322754 -17.63671875 11.37231445 C-38.30632721 11.09718521 -38.30632721 11.09718521 -44.875 5.36328125 C-45.24625 4.91339844 -45.6175 4.46351563 -46 4 C-44.35 4 -42.7 4 -41 4 C-41 4.66 -41 5.32 -41 6 C-38.39740876 6.53010201 -35.793443 7.04937795 -33.1875 7.5625 C-32.44951172 7.71396484 -31.71152344 7.86542969 -30.95117188 8.02148438 C-26.4455084 8.90812606 -26.4455084 8.90812606 -22 8 C-20.52034074 7.85426942 -19.03596157 7.75336732 -17.55078125 7.68359375 C-16.70322266 7.64169922 -15.85566406 7.59980469 -14.98242188 7.55664062 C-13.66081055 7.49766602 -13.66081055 7.49766602 -12.3125 7.4375 C-10.97348633 7.37272461 -10.97348633 7.37272461 -9.60742188 7.30664062 C-7.40509892 7.20064647 -5.20266527 7.09857949 -3 7 C-2.690625 6.030625 -2.38125 5.06125 -2.0625 4.0625 C-1 1 -1 1 0 0 Z " fill="#768899" transform="translate(85,134)"/>
<path d="M0 0 C2.4375 0.375 2.4375 0.375 5 1 C5.33 1.66 5.66 2.32 6 3 C5.01 3 4.02 3 3 3 C3.66 6.63 4.32 10.26 5 14 C5.99 14.33 6.98 14.66 8 15 C8.33 15.66 8.66 16.32 9 17 C11.34038186 18.13102526 11.34038186 18.13102526 14.0625 19.125 C15.44115234 19.65480469 15.44115234 19.65480469 16.84765625 20.1953125 C17.55792969 20.46085937 18.26820312 20.72640625 19 21 C19 21.66 19 22.32 19 23 C25.00054754 24.66681876 30.7945858 25.51679152 37 26 C37 26.99 37 27.98 37 29 C23.94797071 28.59084548 15.8608733 26.25562486 6.12890625 17.4140625 C2.594185 13.40588317 0.71620686 9.45393058 0.3125 4.125 C0.24675781 3.34382813 0.18101563 2.56265625 0.11328125 1.7578125 C0.07589844 1.17773438 0.03851563 0.59765625 0 0 Z " fill="#217894" transform="translate(80,17)"/>
<path d="M0 0 C0.33 0 0.66 0 1 0 C3.25362593 11.02666971 3.31092995 21.79428051 3 33 C2.97035156 34.12535156 2.94070312 35.25070313 2.91015625 36.41015625 C2.55228315 42.6161995 0.91128541 47.51595074 -2 53 C-3.13809248 49.58572256 -2.52468273 48.34586532 -1.484375 45.03515625 C-0.5114036 40.94710707 -0.30903917 36.20449409 -1.57421875 32.16796875 C-2.06303697 29.67903192 -1.70612693 27.64813663 -1.29345703 25.16748047 C-0.66130635 20.49840083 -0.61562239 15.76668315 -0.4375 11.0625 C-0.39431641 9.99708984 -0.35113281 8.93167969 -0.30664062 7.83398438 C-0.20125511 5.22276557 -0.09912912 2.61146254 0 0 Z " fill="#B8C6D2" transform="translate(130,49)"/>
<path d="M0 0 C1.32 0.33 2.64 0.66 4 1 C3.95359375 1.6084375 3.9071875 2.216875 3.859375 2.84375 C3.57408848 9.7721369 4.69530404 15.72950709 6.57714844 22.33984375 C7.69526388 26.34193966 8.20606847 29.84643249 8 34 C8.66 34 9.32 34 10 34 C10 36.31 10 38.62 10 41 C6.53649099 38.31401342 5.64200617 34.65846413 4.4375 30.625 C4.22134033 29.91400146 4.00518066 29.20300293 3.7824707 28.47045898 C1.02104769 19.06859616 -0.33219087 9.79963062 0 0 Z " fill="#AFBBC7" transform="translate(4,71)"/>
<path d="M0 0 C0.680625 0.721875 1.36125 1.44375 2.0625 2.1875 C4.16006249 4.30917241 6.34995143 6.00575951 8.8125 7.6875 C9.864375 8.450625 10.91625 9.21375 12 10 C12 10.66 12 11.32 12 12 C12.556875 12.268125 13.11375 12.53625 13.6875 12.8125 C16.19712523 14.10122647 18.59334236 15.52926478 21 17 C21 16.34 21 15.68 21 15 C26.44567686 16.02862785 31.11817117 17.24614784 36 20 C32.86567988 21.00746004 31.13816549 20.78454137 28 20 C27.401875 20.185625 26.80375 20.37125 26.1875 20.5625 C21.83194001 21.433612 17.89277918 19.45588724 14.0625 17.5 C13.381875 17.005 12.70125 16.51 12 16 C12 15.34 12 14.68 12 14 C11.34 14 10.68 14 10 14 C10 13.34 10 12.68 10 12 C9.34 12 8.68 12 8 12 C8 11.34 8 10.68 8 10 C7.443125 9.7525 6.88625 9.505 6.3125 9.25 C2.37359196 7.12086052 -0.55694029 5.32917913 -2 1 C-1.34 0.67 -0.68 0.34 0 0 Z " fill="#AEBCC9" transform="translate(18,115)"/>
<path d="M0 0 C0.66 0.33 1.32 0.66 2 1 C2 1.99 2 2.98 2 4 C6.29 4.33 10.58 4.66 15 5 C15 7.31 15 9.62 15 12 C13.845 11.979375 12.69 11.95875 11.5 11.9375 C7.25649453 11.92992231 3.19823356 12.40025235 -1 13 C-1.02686553 11.02090602 -1.04633375 9.04171029 -1.0625 7.0625 C-1.07410156 5.96035156 -1.08570313 4.85820313 -1.09765625 3.72265625 C-1 1 -1 1 0 0 Z " fill="#A5B1BE" transform="translate(5,58)"/>
<path d="M0 0 C0.33 0 0.66 0 1 0 C1.33 3.96 1.66 7.92 2 12 C1.01 12.66 0.02 13.32 -1 14 C-1.72965366 16.56282742 -1.72965366 16.56282742 -2 19 C-10.88512349 19.35021655 -18.55762426 18.89452883 -27 16 C-22.85073609 14.73760603 -18.95000677 15.01270581 -14.65625 15.16015625 C-11.86140791 14.99164371 -10.42573596 14.30969357 -8 13 C-4.75 12.875 -4.75 12.875 -2 13 C-2.04125 11.783125 -2.0825 10.56625 -2.125 9.3125 C-2.13754508 5.78105873 -1.59998217 3.19996434 0 0 Z " fill="#BBC8D4" transform="translate(83,121)"/>
<path d="M0 0 C-0.556875 0.268125 -1.11375 0.53625 -1.6875 0.8125 C-2.8321875 1.4003125 -2.8321875 1.4003125 -4 2 C-4.9075 2.433125 -5.815 2.86625 -6.75 3.3125 C-7.4925 3.869375 -8.235 4.42625 -9 5 C-9.41780879 7.62694422 -9.41780879 7.62694422 -9 10 C-8.34 10 -7.68 10 -7 10 C-6.67 10.66 -6.34 11.32 -6 12 C-4.08930501 12.73999685 -2.14485315 13.39409625 -0.1875 14 C5.67248141 15.82722928 5.67248141 15.82722928 8.05859375 17.0859375 C10.4827592 18.22729508 12.58672187 18.4147412 15.25 18.625 C16.14203125 18.69976562 17.0340625 18.77453125 17.953125 18.8515625 C18.96632813 18.92503906 18.96632813 18.92503906 20 19 C20 19.99 20 20.98 20 22 C13.19796625 22.37634203 8.24309927 21.77471079 2 19 C2 18.34 2 17.68 2 17 C1.484375 16.896875 0.96875 16.79375 0.4375 16.6875 C-8.12305516 14.27298444 -8.12305516 14.27298444 -10.9375 10.1875 C-12.03117555 6.90647335 -12.24514907 4.43208697 -12 1 C-7.9472484 0.01751476 -4.16138263 -0.08159574 0 0 Z " fill="#3098BB" transform="translate(97,21)"/>
<path d="M0 0 C10.90238972 1.56868917 19.74151839 10.57612517 26.4453125 18.765625 C28.66086316 21.83331052 29 23.07612778 29 27 C28.01 26.67 27.02 26.34 26 26 C26 25.01 26 24.02 26 23 C25.34 23 24.68 23 24 23 C22.71569138 21.52304509 21.43419292 20.04193862 20.21875 18.5078125 C18.93215329 16.86186905 18.93215329 16.86186905 17 15 C11 9 11 9 9.3125 7.0625 C6.38103464 4.44794981 3.65611541 3.40619823 0 2 C0 1.34 0 0.68 0 0 Z " fill="#217993" transform="translate(71,35)"/>
<path d="M0 0 C4 0 4 0 5.46484375 1.3203125 C5.97144531 1.87460938 6.47804688 2.42890625 7 3 C9.28351785 4.4897817 11.60455534 5.90027464 13.94140625 7.3046875 C16.38238496 9.31490526 17.06513046 11.01852416 18 14 C17.34 14 16.68 14 16 14 C15.34 13.34 14.68 12.68 14 12 C9.59798602 9.82800817 4.98381193 9.16299425 0.1875 8.375 C-0.60076172 8.2409375 -1.38902344 8.106875 -2.20117188 7.96875 C-4.13328006 7.6408771 -6.0665322 7.31975763 -8 7 C-7.67 6.34 -7.34 5.68 -7 5 C-4.69 5 -2.38 5 0 5 C0 4.01 0 3.02 0 2 C0 1.34 0 0.68 0 0 Z " fill="#C6CED7" transform="translate(35,65)"/>
<path d="M0 0 C0.66 0.66 1.32 1.32 2 2 C1.10861328 2.02187378 1.10861328 2.02187378 0.19921875 2.04418945 C-2.53445634 2.11938678 -5.26700417 2.21580522 -8 2.3125 C-8.93457031 2.33505859 -9.86914062 2.35761719 -10.83203125 2.38085938 C-17.41564402 2.63407525 -24.09979702 3.09979702 -29 8 C-29.6425235 10.06874034 -29.6425235 10.06874034 -30 12 C-29.34 12 -28.68 12 -28 12 C-28 12.66 -28 13.32 -28 14 C-23.71 14 -19.42 14 -15 14 C-15 14.33 -15 14.66 -15 15 C-21.59390542 15.99989549 -26.61767125 16.00925164 -33 14 C-33.703125 12.26171875 -33.703125 12.26171875 -34 10 C-32.671875 7.89453125 -32.671875 7.89453125 -30.75 5.8125 C-30.12609375 5.11769531 -29.5021875 4.42289063 -28.859375 3.70703125 C-22.74800041 -1.90362147 -7.82389045 -0.75180706 0 0 Z " fill="#5EB5D1" transform="translate(58,35)"/>
<path d="M0 0 C1.91463406 1.48748473 3.28572348 3.0517739 4.48828125 5.15625 C3.07036717 4.70179036 1.65400079 4.24250056 0.23828125 3.78125 C-0.550625 3.52601562 -1.33953125 3.27078125 -2.15234375 3.0078125 C-4.51171875 2.15625 -4.51171875 2.15625 -6.52734375 1.06640625 C-13.25442085 -2.01904446 -23.38533295 0.47054965 -30.51171875 1.15625 C-30.18171875 4.12625 -29.85171875 7.09625 -29.51171875 10.15625 C-31.9093506 7.75861815 -31.85452461 6.82351502 -32.13671875 3.53125 C-32.21148437 2.71398437 -32.28625 1.89671875 -32.36328125 1.0546875 C-32.41226563 0.42820312 -32.46125 -0.19828125 -32.51171875 -0.84375 C-9.33617631 -5.59770742 -9.33617631 -5.59770742 0 0 Z " fill="#247F9C" transform="translate(115.51171875,20.84375)"/>
<path d="M0 0 C0.66 0 1.32 0 2 0 C2.02687279 1.81242052 2.04633715 3.62495233 2.0625 5.4375 C2.07410156 6.44683594 2.08570312 7.45617187 2.09765625 8.49609375 C2 11 2 11 1 12 C-3.46462793 12.51024319 -6.20958824 11.32066026 -10 9 C-12.21206909 7.11041934 -14.0490645 5.18318973 -16 3 C-16 2.34 -16 1.68 -16 1 C-15.34 1 -14.68 1 -14 1 C-13.484375 1.639375 -12.96875 2.27875 -12.4375 2.9375 C-8.92679039 5.90810044 -5.47649306 5.80869688 -1 6 C-0.67 4.02 -0.34 2.04 0 0 Z " fill="#1B7297" transform="translate(39,139)"/>
<path d="M0 0 C1.32 0.33 2.64 0.66 4 1 C4 1.99 4 2.98 4 4 C5.65 4 7.3 4 9 4 C9.33 4.66 9.66 5.32 10 6 C12.52733235 6.65555119 12.52733235 6.65555119 15 7 C16.125 10.75 16.125 10.75 15 13 C9.80729167 13 9.80729167 13 7 12 C5.30263615 10.04571507 4.18319822 8.11395455 3.0078125 5.8125 C2.12804327 3.82886251 2.12804327 3.82886251 0 3 C0 2.01 0 1.02 0 0 Z " fill="#34A7CE" transform="translate(22,131)"/>
<path d="M0 0 C0.66 0.33 1.32 0.66 2 1 C-0.51965279 7.75725067 -3.04152318 10.16558391 -9.5625 13.1875 C-12 14 -12 14 -16 14 C-16 12.68 -16 11.36 -16 10 C-15.14728516 9.67128906 -15.14728516 9.67128906 -14.27734375 9.3359375 C-8.62561823 7.01486158 -4.39281092 4.23743819 0 0 Z " fill="#D8E5ED" transform="translate(125,96)"/>
<path d="M0 0 C0.33 0.66 0.66 1.32 1 2 C-5.65879842 10.4359054 -12.77955414 15.65512681 -23 19 C-23 18.34 -23 17.68 -23 17 C-22.236875 16.7525 -21.47375 16.505 -20.6875 16.25 C-17.73819971 14.87823242 -16.82568981 13.6081283 -15 11 C-14.34 11 -13.68 11 -13 11 C-13 10.34 -13 9.68 -13 9 C-11.42578125 7.8515625 -11.42578125 7.8515625 -9.3125 6.625 C-5.9872493 4.63457463 -2.9687864 2.50491352 0 0 Z " fill="#186A8C" transform="translate(152,25)"/>
<path d="M0 0 C0.99420906 3.29625316 1.1025611 6.24918922 1.0625 9.68359375 C1.05476563 10.77607422 1.04703125 11.86855469 1.0390625 12.99414062 C1.01306514 15.28580779 0.98702363 17.57747446 0.9609375 19.86914062 C0.95320313 20.96291016 0.94546875 22.05667969 0.9375 23.18359375 C0.92589844 24.17931396 0.91429688 25.17503418 0.90234375 26.20092773 C0.99696608 28.91304013 1.38725275 31.36114607 2 34 C1.01 33.67 0.02 33.34 -1 33 C-3.71949502 22.24342594 -4.03546636 11.7134107 -1 1 C-0.67 0.67 -0.34 0.34 0 0 Z " fill="#3991AE" transform="translate(86,98)"/>
<path d="M0 0 C0.66 0 1.32 0 2 0 C2.34164605 6.94680303 1.80364415 13.53892707 -1 20 C-1.99 20.33 -2.98 20.66 -4 21 C-4.54470737 13.0412201 -3.48901845 7.18052459 0 0 Z " fill="#5FC0DF" transform="translate(92,91)"/>
<path d="M0 0 C1.65 0 3.3 0 5 0 C5 0.66 5 1.32 5 2 C7.60259124 2.53010201 10.206557 3.04937795 12.8125 3.5625 C13.91948242 3.78969727 13.91948242 3.78969727 15.04882812 4.02148438 C19.5544916 4.90812606 19.5544916 4.90812606 24 4 C25.48123547 3.9193378 26.96582204 3.89238807 28.44921875 3.90234375 C29.29677734 3.90556641 30.14433594 3.90878906 31.01757812 3.91210938 C31.89865234 3.92048828 32.77972656 3.92886719 33.6875 3.9375 C35.02651367 3.94426758 35.02651367 3.94426758 36.39257812 3.95117188 C38.59511987 3.96295017 40.79752599 3.97939836 43 4 C43 4.33 43 4.66 43 5 C29.54198991 8.54658148 15.98789531 7.9786932 3 3 C1.078125 1.36328125 1.078125 1.36328125 0 0 Z " fill="#8192A3" transform="translate(39,138)"/>
<path d="M0 0 C0.33 0 0.66 0 1 0 C1.66964286 7.76785714 1.66964286 7.76785714 -1.0625 11.4375 C-4.48093854 14.41954213 -6.53070868 14.82473367 -11 15 C-11 13.68 -11 12.36 -11 11 C-10.236875 10.79375 -9.47375 10.5875 -8.6875 10.375 C-5.17770897 8.57929296 -4.47400219 6.56863688 -3 3 C-2.34 3 -1.68 3 -1 3 C-0.67 2.01 -0.34 1.02 0 0 Z " fill="#55B8D8" transform="translate(120,74)"/>
<path d="M0 0 C1.093125 0.185625 2.18625 0.37125 3.3125 0.5625 C6.93624133 1.2578068 6.93624133 1.2578068 10 0 C10.81726562 0.29648438 11.63453125 0.59296875 12.4765625 0.8984375 C17.42005445 2.44396381 22.22319072 2.4654601 27.375 2.625 C28.39722656 2.66367188 29.41945313 2.70234375 30.47265625 2.7421875 C32.98159597 2.83597964 35.49053764 2.92167879 38 3 C38 3.33 38 3.66 38 4 C36.74703125 4.06058594 35.4940625 4.12117187 34.203125 4.18359375 C32.55207276 4.26802256 30.90103165 4.35266939 29.25 4.4375 C28.425 4.47681641 27.6 4.51613281 26.75 4.55664062 C25.95078125 4.59853516 25.1515625 4.64042969 24.328125 4.68359375 C23.5949707 4.72025146 22.86181641 4.75690918 22.10644531 4.79467773 C19.99038107 4.93882581 19.99038107 4.93882581 17.97265625 5.56835938 C14.48720129 6.33101833 11.1220656 4.98296667 7.75 4.0625 C7.00492188 3.86720703 6.25984375 3.67191406 5.4921875 3.47070312 C3.65920614 2.98895802 1.82928182 2.49560775 0 2 C0 1.34 0 0.68 0 0 Z " fill="#8D9EAE" transform="translate(44,138)"/>
<path d="M0 0 C0.33 0.99 0.66 1.98 1 3 C0.67 3.33 0.34 3.66 0 4 C-3.45169618 16.97535427 -2.22100233 29.95161131 0 43 C-3.05034849 40.21489921 -3.92776271 38.217572 -4.17700195 34.01660156 C-4.23150915 30.79133916 -4.27655337 27.56650654 -4.29516602 24.34082031 C-4.3066635 22.95399759 -4.3270804 21.56721834 -4.35668945 20.18066406 C-4.65947428 5.99206554 -4.65947428 5.99206554 0 0 Z " fill="#339FC2" transform="translate(90,90)"/>
<path d="M0 0 C0.66 0.33 1.32 0.66 2 1 C0.71937515 2.7074998 -0.61767557 4.37373596 -2 6 C-2.66 6 -3.32 6 -4 6 C-4.309375 6.61875 -4.61875 7.2375 -4.9375 7.875 C-5.625 9.25 -6.3125 10.625 -7 12 C-3.04 12 0.92 12 5 12 C5 12.33 5 12.66 5 13 C-0.61 13 -6.22 13 -12 13 C-9.14888857 7.29777714 -6.3213437 2.17977369 0 0 Z " fill="#2484A3" transform="translate(19,43)"/>
<path d="M0 0 C0.75087891 -0.00773437 1.50175781 -0.01546875 2.27539062 -0.0234375 C6.48752924 -0.00861907 9.71753835 0.32369715 13.5625 2.25 C13.5625 2.91 13.5625 3.57 13.5625 4.25 C14.366875 4.476875 15.17125 4.70375 16 4.9375 C18.5625 6.25 18.5625 6.25 19.5625 8.6875 C19.5625 11.25 19.5625 11.25 18.625 13 C15.40896417 14.94911262 12.29092792 14.94439115 8.5625 15.25 C9.14 14.981875 9.7175 14.71375 10.3125 14.4375 C12.63613365 13.2111378 14.60074646 12.00156566 16.5625 10.25 C16.5625 9.26 16.5625 8.27 16.5625 7.25 C14.2525 6.26 11.9425 5.27 9.5625 4.25 C9.5625 3.59 9.5625 2.93 9.5625 2.25 C2.3025 2.25 -4.9575 2.25 -12.4375 2.25 C-8.03767622 0.05008811 -4.77127268 -0.04889434 0 0 Z " fill="#4CA8C6" transform="translate(50.4375,33.75)"/>
<path d="M0 0 C0.33 0.66 0.66 1.32 1 2 C-5.92938497 10.81548975 -5.92938497 10.81548975 -12 12 C-12 12.66 -12 13.32 -12 14 C-15.17399068 17.71810337 -17.1725177 19.32951635 -22 20 C-22.33 20.66 -22.66 21.32 -23 22 C-23.33 20.02 -23.66 18.04 -24 16 C-23.07380859 15.67128906 -23.07380859 15.67128906 -22.12890625 15.3359375 C-13.10649958 11.95768477 -5.77891148 7.82949298 0 0 Z " fill="#2486AC" transform="translate(151,22)"/>
<path d="M0 0 C0.66 0.33 1.32 0.66 2 1 C-1.51359873 7.19240627 -5.06509544 12.84078159 -10 18 C-10.66 18 -11.32 18 -12 18 C-12.33 15.36 -12.66 12.72 -13 10 C-10.69 10 -8.38 10 -6 10 C-5.81824219 9.44570312 -5.63648437 8.89140625 -5.44921875 8.3203125 C-5.19785156 7.59585938 -4.94648437 6.87140625 -4.6875 6.125 C-4.44386719 5.40570313 -4.20023438 4.68640625 -3.94921875 3.9453125 C-3 2 -3 2 0 0 Z " fill="#8394A5" transform="translate(125,114)"/>
<path d="M0 0 C1.98 0.66 3.96 1.32 6 2 C6 2.66 6 3.32 6 4 C6.69867188 4.06058594 7.39734375 4.12117188 8.1171875 4.18359375 C9.02726562 4.26738281 9.93734375 4.35117187 10.875 4.4375 C11.77992187 4.51871094 12.68484375 4.59992187 13.6171875 4.68359375 C16 5 16 5 18 6 C19.70363822 6.22622081 21.41328701 6.40888473 23.125 6.5625 C24.03507812 6.64628906 24.94515625 6.73007812 25.8828125 6.81640625 C26.58148438 6.87699219 27.28015625 6.93757813 28 7 C28 7.99 28 8.98 28 10 C18.59829877 9.70527582 8.93838707 9.19500628 1.875 2.25 C1.25625 1.5075 0.6375 0.765 0 0 Z " fill="#196A8B" transform="translate(89,36)"/>
<path d="M0 0 C0.33 0 0.66 0 1 0 C1.06058594 0.72445312 1.12117188 1.44890625 1.18359375 2.1953125 C1.54571037 6.37358116 1.91201401 10.48968127 2.625 14.625 C2.74875 15.40875 2.8725 16.1925 3 17 C1.43058802 18.56941198 -0.14134994 18.2449847 -2.3125 18.3125 C-5.82699145 18.29571103 -6.69309167 18.23953821 -9.5625 16 C-10.2740625 15.01 -10.2740625 15.01 -11 14 C-8.36 14 -5.72 14 -3 14 C-1.20724134 10.88089144 -0.65709282 8.32317572 -0.375 4.75 C-0.30023438 3.85796875 -0.22546875 2.9659375 -0.1484375 2.046875 C-0.09945312 1.37140625 -0.05046875 0.6959375 0 0 Z " fill="#1D779B" transform="translate(113,136)"/>
<path d="M0 0 C2.49361571 1.20381448 4.68143083 2.45428722 7 4 C7 4.66 7 5.32 7 6 C7.66 6 8.32 6 9 6 C9 6.66 9 7.32 9 8 C9.66 8 10.32 8 11 8 C11 8.66 11 9.32 11 10 C11.53625 10.0825 12.0725 10.165 12.625 10.25 C15.83772084 11.26454342 18.23321723 13.09783684 21 15 C22.3191582 15.69429379 23.64649406 16.37530495 25 17 C20.98634966 17.71353784 18.9329737 17.52454158 15.33203125 15.5 C9.46069409 11.35362121 4.2568531 6.82593206 0 1 C0 0.67 0 0.34 0 0 Z " fill="#899FB1" transform="translate(19,121)"/>
<path d="M0 0 C0.33 0 0.66 0 1 0 C1.42345694 7.23013512 0.96038712 14.28735265 -2 21 C-2.99 21.33 -3.98 21.66 -5 22 C-4.01 18.535 -4.01 18.535 -3 15 C-3.99 15.33 -4.98 15.66 -6 16 C-4.25192871 10.53262809 -2.34205919 5.24175152 0 0 Z " fill="#CBD9E2" transform="translate(129,82)"/>
<path d="M0 0 C0.33 0 0.66 0 1 0 C1.67738519 9.93498284 0.70706099 23.37599672 -5 32 C-6.485 32.495 -6.485 32.495 -8 33 C-7.67 31.68 -7.34 30.36 -7 29 C-6.34 29 -5.68 29 -5 29 C-5.061875 28.01 -5.12375 27.02 -5.1875 26 C-5.20551763 21.56766301 -3.69106804 18.03052486 -2 14 C-0.99740493 10.99221479 -0.69685358 8.46179353 -0.4375 5.3125 C-0.35371094 4.31863281 -0.26992187 3.32476562 -0.18359375 2.30078125 C-0.12300781 1.54152344 -0.06242188 0.78226562 0 0 Z " fill="#8F9FAE" transform="translate(132,82)"/>
<path d="M0 0 C0.66 0.33 1.32 0.66 2 1 C0.625 2.5 0.625 2.5 -1 4 C-1.66 4 -2.32 4 -3 4 C-3.226875 4.556875 -3.45375 5.11375 -3.6875 5.6875 C-5.36718835 8.6469509 -7.54133285 10.66126784 -10 13 C-10.804375 13.8971875 -10.804375 13.8971875 -11.625 14.8125 C-13 16 -13 16 -16 16 C-12.87875837 9.16080879 -8.01158089 3.83802084 -1 1 C-0.67 0.67 -0.34 0.34 0 0 Z " fill="#339ABB" transform="translate(28,39)"/>
<path d="M0 0 C5.97178813 8.9576822 5.27471243 18.68463483 4 29 C3.67 29 3.34 29 3 29 C2.86722656 27.72382813 2.73445313 26.44765625 2.59765625 25.1328125 C2.41947335 23.46352004 2.24107686 21.79425036 2.0625 20.125 C1.97548828 19.28324219 1.88847656 18.44148438 1.79882812 17.57421875 C1.71181641 16.76855469 1.62480469 15.96289062 1.53515625 15.1328125 C1.456604 14.38918457 1.37805176 13.64555664 1.29711914 12.87939453 C1.08362653 10.91553684 1.08362653 10.91553684 0 9 C-0.06950541 7.45976004 -0.08452357 5.91665012 -0.0625 4.375 C-0.05347656 3.55773437 -0.04445313 2.74046875 -0.03515625 1.8984375 C-0.02355469 1.27195312 -0.01195313 0.64546875 0 0 Z " fill="#3390AE" transform="translate(107,104)"/>
<path d="M0 0 C2.375 1.125 2.375 1.125 4 3 C4.25 6.1875 4.25 6.1875 4 9 C0.125 7.25 0.125 7.25 -1 5 C-0.67 4.01 -0.34 3.02 0 2 C-1.65 2 -3.3 2 -5 2 C-5 3.32 -5 4.64 -5 6 C-6.98 6.99 -6.98 6.99 -9 8 C-9.22223194 5.25913944 -9.34781139 3.56036279 -7.875 1.1875 C-5.11646047 -0.55957504 -3.20161236 -0.39203417 0 0 Z " fill="#071017" transform="translate(77,57)"/>
<path d="M0 0 C1.0528418 0.01353516 1.0528418 0.01353516 2.12695312 0.02734375 C3.85561525 0.05086296 5.58410145 0.08673287 7.3125 0.125 C7.3125 0.455 7.3125 0.785 7.3125 1.125 C2.6925 1.125 -1.9275 1.125 -6.6875 1.125 C-6.3575 2.115 -6.0275 3.105 -5.6875 4.125 C-4.08068359 4.19847656 -4.08068359 4.19847656 -2.44140625 4.2734375 C-1.04424361 4.34845294 0.3528905 4.4240013 1.75 4.5 C2.81057617 4.54640625 2.81057617 4.54640625 3.89257812 4.59375 C5.70489188 4.69780629 7.51067988 4.90419892 9.3125 5.125 C9.6425 5.785 9.9725 6.445 10.3125 7.125 C3.7125 6.795 -2.8875 6.465 -9.6875 6.125 C-10.0175 4.805 -10.3475 3.485 -10.6875 2.125 C-7.00662647 -0.32891569 -4.24394412 -0.10302759 0 0 Z " fill="#B0C2CE" transform="translate(16.6875,56.875)"/>
<path d="M0 0 C2.23934832 1.77480266 2.94421698 2.65350162 3.40625 5.5234375 C3.4371875 6.46445313 3.468125 7.40546875 3.5 8.375 C3.77903538 12.79306012 4.41193159 15.33356976 7 19 C7.6875 21.8125 7.6875 21.8125 8 24 C6.1875 23.5 6.1875 23.5 4 22 C0.37495917 15.01843989 0.31573533 7.75184675 0 0 Z " fill="#1E7293" transform="translate(15,116)"/>
<path d="M0 0 C6.27 1.32 12.54 2.64 19 4 C19 4.33 19 4.66 19 5 C18.16855469 4.98839844 17.33710937 4.97679687 16.48046875 4.96484375 C14.85044922 4.95130859 14.85044922 4.95130859 13.1875 4.9375 C11.56908203 4.92009766 11.56908203 4.92009766 9.91796875 4.90234375 C6.93487831 4.86375234 6.93487831 4.86375234 4 6 C1.30078125 5.22265625 1.30078125 5.22265625 -1.6875 4.0625 C-2.68136719 3.68222656 -3.67523438 3.30195313 -4.69921875 2.91015625 C-5.45847656 2.60980469 -6.21773437 2.30945313 -7 2 C-3.98968256 1.06576355 -3.13349732 0.95550089 0 2 C0 1.34 0 0.68 0 0 Z " fill="#A1B1BF" transform="translate(45,134)"/>
<path d="M0 0 C2.61947449 3.16169807 4.06856421 6.31288798 5.5625 10.125 C7.18990749 14.44669828 7.18990749 14.44669828 10 18 C7.83125748 17.49396008 6.00032373 17.00016187 4 16 C3.34 16.66 2.68 17.32 2 18 C2 15.03 2 12.06 2 9 C1.34 9 0.68 9 0 9 C0 6.03 0 3.06 0 0 Z " fill="#237E9A" transform="translate(102,63)"/>
<path d="M0 0 C1.7492214 -0.08142927 3.49954542 -0.13938541 5.25 -0.1875 C6.22453125 -0.22230469 7.1990625 -0.25710937 8.203125 -0.29296875 C11.39706651 0.04159216 12.72880304 0.76665633 15 3 C15 3.66 15 4.32 15 5 C15.99 5.33 16.98 5.66 18 6 C11.83197881 6.52493797 7.3929829 5.0095261 2 2 C1.34 1.34 0.68 0.68 0 0 Z " fill="#2E93B3" transform="translate(64,37)"/>
<path d="M0 0 C2.05335603 1.76001946 3.06023415 3.13314917 4.1875 5.625 C6.74663935 10.39029397 10.3208555 14.06742274 14 18 C12.68 18.33 11.36 18.66 10 19 C5.29416403 13.89080666 0 7.19524899 0 0 Z " fill="#1D6F90" transform="translate(86,131)"/>
<path d="M0 0 C-2.90858975 2.90858975 -6.20502253 2.75750247 -10.125 3.1875 C-10.85976563 3.28224609 -11.59453125 3.37699219 -12.3515625 3.47460938 C-17.44488414 4.06195544 -21.93723272 3.80935395 -27 3 C-27 2.67 -27 2.34 -27 2 C-17.86970027 0.09572892 -9.28145408 -0.22823248 0 0 Z " fill="#4BB6D8" transform="translate(65,46)"/>
<path d="M0 0 C0.66 0.66 1.32 1.32 2 2 C1.67 2.99 1.34 3.98 1 5 C1 6.32 1 7.64 1 9 C0.20845083 13.68410865 -0.88935165 18.31330566 -4 22 C-6.6875 22.3125 -6.6875 22.3125 -9 22 C-9 21.34 -9 20.68 -9 20 C-8.401875 19.938125 -7.80375 19.87625 -7.1875 19.8125 C-4.02271301 18.63700769 -3.46513778 16.99965534 -2 14 C-1.46486942 10.68767601 -1.46486942 10.68767601 -1.375 7.25 C-1.08470588 1.08470588 -1.08470588 1.08470588 0 0 Z " fill="#2F96B7" transform="translate(118,62)"/>
<path d="M0 0 C0.52078125 0.14308594 1.0415625 0.28617188 1.578125 0.43359375 C4.61636346 1.14414952 7.66453687 1.59968053 10.75 2.0625 C11.92046875 2.23910156 13.0909375 2.41570313 14.296875 2.59765625 C15.18890625 2.73042969 16.0809375 2.86320312 17 3 C17 3.99 17 4.98 17 6 C15.37509046 6.02698189 13.75005367 6.04638757 12.125 6.0625 C11.22007813 6.07410156 10.31515625 6.08570313 9.3828125 6.09765625 C7 6 7 6 5 5 C5 4.34 5 3.68 5 3 C2.525 2.01 2.525 2.01 0 1 C0 0.67 0 0.34 0 0 Z " fill="#3B9ABF" transform="translate(100,37)"/>
<path d="M0 0 C-1.11190476 3.33571429 -1.46320673 3.58417079 -4.375 5.1875 C-4.98085937 5.53167969 -5.58671875 5.87585938 -6.2109375 6.23046875 C-8 7 -8 7 -11 7 C-10.25 4.0625 -10.25 4.0625 -9 1 C-6.14297313 -0.37925435 -3.13680281 -0.08713341 0 0 Z " fill="#5BBDDC" transform="translate(140,16)"/>
<path d="M0 0 C0.66 0 1.32 0 2 0 C1.25 7.75 1.25 7.75 -1 10 C-4.17280351 9.56237193 -7.05667611 8.22638495 -10 7 C-10 6.67 -10 6.34 -10 6 C-7.03 6 -4.06 6 -1 6 C-0.67 4.02 -0.34 2.04 0 0 Z " fill="#2180A7" transform="translate(39,139)"/>
<path d="M0 0 C1.98 0.495 1.98 0.495 4 1 C3.67 1.66 3.34 2.32 3 3 C3.9178125 2.96519531 4.835625 2.93039063 5.78125 2.89453125 C12.96237667 2.73612404 18.49211296 2.87621422 25 6 C21.28046555 7.37760535 19.57910019 6.4336882 16 5 C12.75001341 4.69799491 9.52495709 4.53929794 6.26367188 4.43359375 C1.20191117 4.20191117 1.20191117 4.20191117 -1 2 C-0.67 1.34 -0.34 0.68 0 0 Z " fill="#CBD5DE" transform="translate(10,58)"/>
<path d="M0 0 C1.65 0 3.3 0 5 0 C5 1.32 5 2.64 5 4 C2.72942623 4.05398987 0.45848712 4.09278742 -1.8125 4.125 C-3.70935547 4.15980469 -3.70935547 4.15980469 -5.64453125 4.1953125 C-9 4 -9 4 -12 2 C-6.06 1.505 -6.06 1.505 0 1 C0 0.67 0 0.34 0 0 Z " fill="#AEBDCA" transform="translate(76,136)"/>
<path d="M0 0 C1.65 0 3.3 0 5 0 C5 1.65 5 3.3 5 5 C-1.625 7 -1.625 7 -5 7 C-5 5.35 -5 3.7 -5 2 C-4.01 3.485 -4.01 3.485 -3 5 C-2.01 4.67 -1.02 4.34 0 4 C0 2.68 0 1.36 0 0 Z " fill="#445866" transform="translate(72,59)"/>
<path d="M0 0 C0.71875 1.71875 0.71875 1.71875 1 4 C-2.70418247 9.84437678 -7.7637831 14.13134023 -14 17 C-14.66 17 -15.32 17 -16 17 C-16 16.34 -16 15.68 -16 15 C-15.39671875 14.68546875 -14.7934375 14.3709375 -14.171875 14.046875 C-7.20355676 10.31545297 -3.34271435 7.35397157 0 0 Z " fill="#309FC5" transform="translate(151,18)"/>
<path d="M0 0 C4.62 0 9.24 0 14 0 C14 0.33 14 0.66 14 1 C8.06 1.495 8.06 1.495 2 2 C2.33 4.97 2.66 7.94 3 11 C-0.15771423 7.84228577 0.37493227 4.37420978 0 0 Z " fill="#2888A7" transform="translate(83,20)"/>
<path d="M0 0 C0.82273185 2.36734455 1.10990889 3.64262754 0.36328125 6.0703125 C0.01652344 6.74835938 -0.33023438 7.42640625 -0.6875 8.125 C-1.02136719 8.80820313 -1.35523437 9.49140625 -1.69921875 10.1953125 C-3.22681238 12.31467663 -4.60786878 13.02300325 -7 14 C-6.71125 13.29875 -6.4225 12.5975 -6.125 11.875 C-4.97866412 8.94547497 -3.97374346 5.99078347 -3 3 C-2.34 3 -1.68 3 -1 3 C-0.67 2.01 -0.34 1.02 0 0 Z " fill="#B5C3CE" transform="translate(125,103)"/>
<path d="M0 0 C2.97 0.495 2.97 0.495 6 1 C5.67 2.32 5.34 3.64 5 5 C4.34 5 3.68 5 3 5 C2.67 5.99 2.34 6.98 2 8 C1.34 8 0.68 8 0 8 C0 5.36 0 2.72 0 0 Z " fill="#939FAD" transform="translate(4,63)"/>
<path d="M0 0 C-1.43240278 3.62359189 -3.02701966 4.93555726 -6.4375 6.75 C-7.21996094 7.17796875 -8.00242187 7.6059375 -8.80859375 8.046875 C-11 9 -11 9 -14 9 C-12.37680325 7.68527053 -10.751385 6.37328338 -9.125 5.0625 C-8.22007813 4.33160156 -7.31515625 3.60070313 -6.3828125 2.84765625 C-2.71035941 0 -2.71035941 0 0 0 Z " fill="#1D6E84" transform="translate(26,37)"/>
<path d="M0 0 C4.34863652 0.56444825 7.17827655 2.15427964 10.8125 4.5625 C12.27623047 5.52349609 12.27623047 5.52349609 13.76953125 6.50390625 C14.50558594 6.99761719 15.24164063 7.49132813 16 8 C14 9 14 9 11.125 8.3125 C7.87001818 6.94540763 6.41532949 5.49584047 4 3 C1.8618034 2.2127322 1.8618034 2.2127322 0 2 C0 1.34 0 0.68 0 0 Z " fill="#1B6A7F" transform="translate(71,35)"/>
<path d="M0 0 C0.33 0 0.66 0 1 0 C1 2.97 1 5.94 1 9 C0.01 9.495 0.01 9.495 -1 10 C-0.67 6.7 -0.34 3.4 0 0 Z M-13 8 C-7.06 8.99 -7.06 8.99 -1 10 C-1.33 10.66 -1.66 11.32 -2 12 C-6.64891954 12.32434322 -9.22406608 11.776422 -13 9 C-13 8.67 -13 8.34 -13 8 Z " fill="#2991B8" transform="translate(111,137)"/>
<path d="M0 0 C0.680625 0.515625 1.36125 1.03125 2.0625 1.5625 C5.83179052 3.40704642 7.97067138 2.91230082 12 2 C12.66 1.67 13.32 1.34 14 1 C12.125 4.875 12.125 4.875 11 6 C4.76470588 6.58823529 4.76470588 6.58823529 1.5625 4.125 C0 2 0 2 0 0 Z " fill="#86CCE3" transform="translate(67,67)"/>
<path d="M0 0 C0.66 0 1.32 0 2 0 C2.66 2.31 3.32 4.62 4 7 C2.02 7 0.04 7 -2 7 C-2.125 4.625 -2.125 4.625 -2 2 C-1.34 1.34 -0.68 0.68 0 0 Z " fill="#798EA0" transform="translate(85,134)"/>
<path d="M0 0 C0.58201172 0.67482422 0.58201172 0.67482422 1.17578125 1.36328125 C3.37460154 3.3360986 5.42988829 4.14891897 8.1875 5.1875 C9.08855469 5.53167969 9.98960938 5.87585937 10.91796875 6.23046875 C11.94857422 6.61138672 11.94857422 6.61138672 13 7 C13 7.66 13 8.32 13 9 C13.66 9.33 14.32 9.66 15 10 C12.03 9.505 12.03 9.505 9 9 C9 8.34 9 7.68 9 7 C8.443125 6.896875 7.88625 6.79375 7.3125 6.6875 C4.49885978 5.85101237 2.37853021 4.71782737 0 3 C0 2.01 0 1.02 0 0 Z " fill="#237FA0" transform="translate(86,31)"/>
<path d="M0 0 C0.66 0.66 1.32 1.32 2 2 C1.625 4.625 1.625 4.625 1 7 C-7.19256018 7.63019694 -7.19256018 7.63019694 -10.5625 5 C-11.2740625 4.01 -11.2740625 4.01 -12 3 C-10.6696875 3.5259375 -10.6696875 3.5259375 -9.3125 4.0625 C-5.93796874 5.01755602 -4.30313848 4.97151132 -1 4 C-0.67 2.68 -0.34 1.36 0 0 Z " fill="#186C90" transform="translate(114,147)"/>
<path d="M0 0 C0.58007812 0.20496094 1.16015625 0.40992188 1.7578125 0.62109375 C6.1621984 2.14009813 10.35677777 3.4047151 15 4 C15 4.66 15 5.32 15 6 C13.3745692 5.85904936 11.74965949 5.71207913 10.125 5.5625 C9.22007813 5.48128906 8.31515625 5.40007812 7.3828125 5.31640625 C5 5 5 5 3 4 C3 3.34 3 2.68 3 2 C2.01 1.67 1.02 1.34 0 1 C0 0.67 0 0.34 0 0 Z " fill="#2F9FC7" transform="translate(95,141)"/>
<path d="M0 0 C3.30823705 3.12941343 5.7131982 6.07976834 8 10 C8.66 10.33 9.32 10.66 10 11 C10 11.66 10 12.32 10 13 C5.77551612 11.43537634 3.59903247 8.58245016 1 5 C0.1875 2.125 0.1875 2.125 0 0 Z " fill="#298FB4" transform="translate(88,132)"/>
<path d="M0 0 C0.33 0 0.66 0 1 0 C1.45164525 7.11341265 0.32797915 11.71546794 -3 18 C-4.14109582 14.57671253 -3.84733551 13.93397825 -2.625 10.6875 C-1.35240222 7.13119934 -0.4823214 3.7621069 0 0 Z " fill="#B3C0CC" transform="translate(131,84)"/>
<path d="M0 0 C0.66 0 1.32 0 2 0 C2.18451025 9.41002278 2.18451025 9.41002278 1 14 C0.67 14 0.34 14 0 14 C-0.2165625 12.6078125 -0.2165625 12.6078125 -0.4375 11.1875 C-0.92100111 7.99274889 -0.92100111 7.99274889 -2 5 C-1.0625 2.3125 -1.0625 2.3125 0 0 Z " fill="#4EB9DB" transform="translate(92,91)"/>
<path d="M0 0 C0.66 1.32 1.32 2.64 2 4 C-1.375 4.625 -1.375 4.625 -5 5 C-5.66 4.34 -6.32 3.68 -7 3 C-4.49955934 -0.00052879 -4.2621484 0 0 0 Z " fill="#1F6498" transform="translate(77,66)"/>
<path d="M0 0 C-1.7578125 0.9765625 -3.515625 1.953125 -5.2734375 2.9296875 C-7.62304071 4.38622886 -8.83541364 5.44040639 -9.625 8.125 C-9.74875 8.74375 -9.8725 9.3625 -10 10 C-9.34 10 -8.68 10 -8 10 C-8 10.66 -8 11.32 -8 12 C-8.99 11.67 -9.98 11.34 -11 11 C-12 8 -12 8 -10.3125 4.4375 C-7.59320386 0.01747569 -5.17540505 -1.84835895 0 0 Z " fill="#54ACC7" transform="translate(38,37)"/>
<path d="M0 0 C2.0625 1.5 2.0625 1.5 4 4 C4.1387211 7.50964392 3.58178845 10.83642309 2 14 C0.09391902 10.78817851 -0.22266247 8.46117397 -0.125 4.75 C-0.09792969 3.41195312 -0.09792969 3.41195312 -0.0703125 2.046875 C-0.04710938 1.37140625 -0.02390625 0.6959375 0 0 Z " fill="#2886AB" transform="translate(18,120)"/>
<path d="M0 0 C0.66 0.33 1.32 0.66 2 1 C1.690625 1.598125 1.38125 2.19625 1.0625 2.8125 C-0.10209704 5.08956772 -0.10209704 5.08956772 -1 8 C-2.65 7.67 -4.3 7.34 -6 7 C-6 6.01 -6 5.02 -6 4 C-5.38125 3.896875 -4.7625 3.79375 -4.125 3.6875 C-1.63473516 3.12474627 -1.63473516 3.12474627 0 0 Z " fill="#A3B3C0" transform="translate(118,117)"/>
<path d="M0 0 C0.33 0 0.66 0 1 0 C1.06058594 0.73605469 1.12117188 1.47210938 1.18359375 2.23046875 C1.26738281 3.20628906 1.35117188 4.18210937 1.4375 5.1875 C1.51871094 6.15042969 1.59992188 7.11335938 1.68359375 8.10546875 C1.97666151 10.78649602 2.42703754 13.3662986 3 16 C2.01 15.67 1.02 15.34 0 15 C-1.60116168 10.19651495 -1.6117046 4.8351138 0 0 Z " fill="#308AA7" transform="translate(85,116)"/>
<path d="M0 0 C1.61648437 0.30550781 1.61648437 0.30550781 3.265625 0.6171875 C4.08546875 0.78476562 4.9053125 0.95234375 5.75 1.125 C5.75 1.455 5.75 1.785 5.75 2.125 C0.14 2.785 -5.47 3.445 -11.25 4.125 C-10.25 1.125 -10.25 1.125 -8.578125 -0.1171875 C-5.4307787 -1.14165928 -3.2299739 -0.63195142 0 0 Z " fill="#2986A3" transform="translate(47.25,31.875)"/>
<path d="M0 0 C0.33 0 0.66 0 1 0 C1.33 3.96 1.66 7.92 2 12 C1.34 12 0.68 12 0 12 C0 11.01 0 10.02 0 9 C-0.66 9 -1.32 9 -2 9 C-1.41196203 5.97580475 -0.77321882 2.98241547 0 0 Z " fill="#A8BBC9" transform="translate(83,121)"/>
<path d="M0 0 C0.33 0 0.66 0 1 0 C1.18451025 12.66970387 1.18451025 12.66970387 0 18 C-0.99 18.33 -1.98 18.66 -3 19 C-2.47731534 16.23723823 -1.89130413 13.6739124 -1 11 C-0.77820215 9.10787263 -0.59385985 7.21115528 -0.4375 5.3125 C-0.31181641 3.82169922 -0.31181641 3.82169922 -0.18359375 2.30078125 C-0.12300781 1.54152344 -0.06242188 0.78226562 0 0 Z " fill="#A1AFBD" transform="translate(132,82)"/>
<path d="M0 0 C0.66 0.66 1.32 1.32 2 2 C1 5 0 8 -1 11 C-1.33 11 -1.66 11 -2 11 C-2 7.7 -2 4.4 -2 1 C-1.34 0.67 -0.68 0.34 0 0 Z " fill="#CDD7E1" transform="translate(11,71)"/>
<path d="M0 0 C0.99 0 1.98 0 3 0 C3 0.66 3 1.32 3 2 C5.31 2.33 7.62 2.66 10 3 C10 3.66 10 4.32 10 5 C4.5388601 4.64766839 4.5388601 4.64766839 2 4 C0.5 1.9375 0.5 1.9375 0 0 Z " fill="#2E9DC6" transform="translate(27,139)"/>
<path d="M0 0 C1.46015291 0.28241641 2.91809793 0.57626614 4.375 0.875 C5.18710937 1.03742188 5.99921875 1.19984375 6.8359375 1.3671875 C9 2 9 2 11 4 C5.25 3.125 5.25 3.125 3 2 C3 2.66 3 3.32 3 4 C1.35 3.67 -0.3 3.34 -2 3 C-1.34 2.67 -0.68 2.34 0 2 C0 1.34 0 0.68 0 0 Z " fill="#B8C5D1" transform="translate(39,130)"/>
<path d="M0 0 C3.28788824 3.11016455 5.83735988 6.01618925 8 10 C4.55729549 8.46990911 1.81074178 6.5068778 -1 4 C-1.33 3.01 -1.66 2.02 -2 1 C-1.34 0.67 -0.68 0.34 0 0 Z " fill="#ACB9C6" transform="translate(18,115)"/>
<path d="M0 0 C4.95 0.99 4.95 0.99 10 2 C10.33 2.99 10.66 3.98 11 5 C7.37 4.01 3.74 3.02 0 2 C0 1.34 0 0.68 0 0 Z " fill="#207894" transform="translate(27,56)"/>
<path d="M0 0 C0.66 0.33 1.32 0.66 2 1 C0.71937515 2.7074998 -0.61767557 4.37373596 -2 6 C-2.66 6 -3.32 6 -4 6 C-4.66 7.32 -5.32 8.64 -6 10 C-6.33 9.34 -6.66 8.68 -7 8 C-5.23772368 4.38269598 -3.35673579 2.19924069 0 0 Z " fill="#298BAA" transform="translate(19,43)"/>
<path d="M0 0 C0.66 0.99 1.32 1.98 2 3 C-0.31 3.66 -2.62 4.32 -5 5 C-5.33 4.34 -5.66 3.68 -6 3 C-5.67 2.34 -5.34 1.68 -5 1 C-2.4375 0.375 -2.4375 0.375 0 0 Z " fill="#5C7285" transform="translate(89,140)"/>
<path d="M0 0 C2.49361571 1.20381448 4.68143083 2.45428722 7 4 C7 4.66 7 5.32 7 6 C7.66 6 8.32 6 9 6 C9 6.66 9 7.32 9 8 C6.46089803 7.61479436 5.27248877 7.29902057 3.515625 5.37109375 C3.09796875 4.73300781 2.6803125 4.09492187 2.25 3.4375 C1.82203125 2.79683594 1.3940625 2.15617187 0.953125 1.49609375 C0.48132813 0.75552734 0.48132813 0.75552734 0 0 Z " fill="#94A8B8" transform="translate(19,121)"/>
<path d="M0 0 C6.52307692 -0.36923077 6.52307692 -0.36923077 8.9375 1.5 C9.288125 1.995 9.63875 2.49 10 3 C7.36 3 4.72 3 2 3 C2 2.34 2 1.68 2 1 C1.34 0.67 0.68 0.34 0 0 Z " fill="#2888A7" transform="translate(68,37)"/>
<path d="M0 0 C8.71428571 1.85714286 8.71428571 1.85714286 11 5 C9.35 5 7.7 5 6 5 C5.67 4.01 5.34 3.02 5 2 C3.35 2 1.7 2 0 2 C0 1.34 0 0.68 0 0 Z " fill="#2F9BC4" transform="translate(26,133)"/>
<path d="M0 0 C0 0.99 0 1.98 0 3 C-3 5 -3 5 -6 5 C-6 4.01 -6 3.02 -6 2 C-4.02 1.34 -2.04 0.68 0 0 Z " fill="#D7E2EB" transform="translate(117,113)"/>
<path d="M0 0 C0.33 0.66 0.66 1.32 1 2 C5.09392846 3.08759087 5.09392846 3.08759087 9 2 C8.67 2.99 8.34 3.98 8 5 C5.36 5 2.72 5 0 5 C0 3.35 0 1.7 0 0 Z " fill="#2A8DAC" transform="translate(105,77)"/>
<path d="M0 0 C-1.125 1.5 -1.125 1.5 -3 3 C-6.1875 3.1875 -6.1875 3.1875 -9 3 C-9 2.34 -9 1.68 -9 1 C-5.8035914 -0.06546953 -3.34252724 -0.07427838 0 0 Z " fill="#54B9DA" transform="translate(103,22)"/>
<path d="M0 0 C0.66 0.33 1.32 0.66 2 1 C0.515 4.96 0.515 4.96 -1 9 C-1.66 8.67 -2.32 8.34 -3 8 C-2.37240135 5.07120629 -1.41377341 2.63904371 0 0 Z " fill="#93A3B2" transform="translate(120,116)"/>
<path d="M0 0 C0.33 0 0.66 0 1 0 C1 2.31 1 4.62 1 7 C1.99 6.67 2.98 6.34 4 6 C3.34 7.65 2.68 9.3 2 11 C1.34 10.67 0.68 10.34 0 10 C0 6.7 0 3.4 0 0 Z " fill="#49B4D6" transform="translate(87,105)"/>
<path d="M0 0 C0.66 0 1.32 0 2 0 C2 2.97 2 5.94 2 9 C1.67 9 1.34 9 1 9 C0.67 7.35 0.34 5.7 0 4 C-0.66 4.66 -1.32 5.32 -2 6 C-1.125 1.125 -1.125 1.125 0 0 Z " fill="#4AAFD0" transform="translate(120,71)"/>
<path d="M0 0 C1.65 0 3.3 0 5 0 C4.1875 1.9375 4.1875 1.9375 3 4 C2.01 4.33 1.02 4.66 0 5 C0 3.35 0 1.7 0 0 Z " fill="#6E8092" transform="translate(113,127)"/>
<path d="M0 0 C-0.99 1.485 -0.99 1.485 -2 3 C-3.32 3 -4.64 3 -6 3 C-6 2.01 -6 1.02 -6 0 C-3.50907189 -1.24546405 -2.58919267 -0.7767578 0 0 Z " fill="#BAC7D2" transform="translate(118,118)"/>
<path d="M0 0 C2.62962963 3.94444444 2.62962963 3.94444444 3 7 C2.0625 9.25 2.0625 9.25 1 11 C-0.20272819 8.59454362 -0.10071472 7.05003047 -0.0625 4.375 C-0.05347656 3.55773437 -0.04445313 2.74046875 -0.03515625 1.8984375 C-0.02355469 1.27195312 -0.01195313 0.64546875 0 0 Z " fill="#2F95B6" transform="translate(107,104)"/>
<path d="M0 0 C2.4375 0.75 2.4375 0.75 5 2 C5.8125 4.125 5.8125 4.125 6 6 C4.68 5.34 3.36 4.68 2 4 C2 3.34 2 2.68 2 2 C1.34 2 0.68 2 0 2 C0 1.34 0 0.68 0 0 Z " fill="#2589B1" transform="translate(23,138)"/>
<path d="M0 0 C0.99 0 1.98 0 3 0 C4.06775224 1.96466413 5.06553465 3.96855359 6 6 C5.67 6.66 5.34 7.32 5 8 C0 2.25 0 2.25 0 0 Z " fill="#2785A3" transform="translate(88,48)"/>
</svg>
